<svg width="24" height="25" viewBox="0 0 24 25" fill="none" xmlns="http://www.w3.org/2000/svg">
<path fill-rule="evenodd" clip-rule="evenodd" d="M12.7069 16.3092C12.5193 16.5039 12.265 16.6133 11.9999 16.6133C11.7347 16.6133 11.4804 16.5039 11.2929 16.3092L5.63585 10.4354C5.54034 10.3396 5.46416 10.225 5.41175 10.0983C5.35934 9.97163 5.33176 9.83538 5.3306 9.69751C5.32945 9.55964 5.35475 9.42291 5.40503 9.2953C5.45531 9.1677 5.52957 9.05176 5.62346 8.95427C5.71735 8.85678 5.829 8.77968 5.9519 8.72747C6.0748 8.67526 6.20648 8.64899 6.33926 8.65019C6.47204 8.65138 6.60325 8.68003 6.72526 8.73445C6.84726 8.78886 6.95761 8.86797 7.04985 8.96714L11.9999 14.1069L16.9499 8.96714C17.1385 8.778 17.3911 8.67334 17.6533 8.6757C17.9155 8.67807 18.1663 8.78727 18.3517 8.97979C18.5371 9.1723 18.6423 9.43273 18.6445 9.70498C18.6468 9.97723 18.546 10.2395 18.3639 10.4354L12.7069 16.3092Z" fill="black"/>
</svg>
